<svg width="64" height="60" viewBox="0 0 64 60" fill="none" xmlns="http://www.w3.org/2000/svg">
<path d="M12.6551 24.2459L18.4111 18.4894C19.1972 15.6857 18.4904 12.5516 16.285 10.3474C12.7787 6.84049 8.20162 6.29486 4.178 3.61061C2.72675 2.64286 2.28962 2.09824 2.28962 2.09824C-1.2815 7.09699 -0.774878 16.8319 4.51312 22.1199C6.71787 24.3241 9.852 25.0324 12.6551 24.2459Z" fill="#676767"/>
<path d="M15.8772 23.8443C15.2152 24.5073 14.966 26.0909 15.4675 27.9278C15.9334 29.6389 17.3737 31.7023 19.4232 33.9314C20.7489 32.4436 22.0204 31.0558 23.1679 29.8614C24.8364 27.9464 26.3807 26.3278 27.8104 24.9975C25.6909 23.0865 23.73 21.748 22.094 21.3023C20.2566 20.8008 18.6721 21.05 18.01 21.712L15.8772 23.8443Z" fill="#676767"/>
<path d="M38.6614 36.6196C37.4042 37.9375 35.9102 39.3501 34.1712 40.8658C33.0861 41.9086 31.8392 43.0546 30.5044 44.25C36.9481 49.8809 44.4246 55.9226 46.2254 57.3508C48.8972 59.5223 51.4181 60.173 52.8786 58.713C54.3391 57.253 53.6869 54.7325 51.516 52.0596C50.1085 50.2855 44.2206 42.999 38.6614 36.6196Z" fill="#676767"/>
<path d="M41.6534 28.842L35.19 22.3802C32.357 23.1524 28.5305 26.6634 24.6031 31.1751C18.373 37.6492 8.36524 50.0189 6.49249 52.3808C4.37462 54.9868 3.73924 57.4454 5.16324 58.8692C6.58824 60.2942 9.04637 59.658 11.6529 57.5411C14.0141 55.6671 26.3839 45.6594 32.858 39.4304C37.3697 35.5024 40.8806 31.6755 41.6534 28.842Z" fill="#676767"/>
<path d="M46.3999 24.2428L39.7569 17.6008L36.4349 20.9223L43.0777 27.5653L46.3999 24.2428Z" fill="#676767"/>
<path d="M63.4377 9.854L54.145 0.562875C53.395 -0.187625 52.179 -0.187625 51.4294 0.562875L46.2886 5.70262L58.2969 17.7109L63.4376 12.5701C64.1872 11.8205 64.1872 10.6046 63.4377 9.854Z" fill="#676767"/>
<path d="M43.7166 8.27451C39.6924 12.2993 42.9501 14.407 41.0341 16.323L47.6766 22.966C49.5931 21.0499 51.7009 24.3076 55.7245 20.284L56.9389 19.069L44.9306 7.06076L43.7166 8.27451Z" fill="#676767"/>
</svg>
