<svg width="26" height="24" viewBox="0 0 26 24" fill="none" xmlns="http://www.w3.org/2000/svg">
<path d="M-0.000355238 12C-0.000355238 13.456 0.493645 14.728 1.48164 15.816C2.46964 16.904 3.70898 17.592 5.19964 17.88C5.21698 17.88 5.22564 17.872 5.22564 17.856V17.808C5.22564 17.808 5.23431 17.8 5.25164 17.784C5.54631 17.112 5.91031 16.568 6.34364 16.152C6.77698 15.736 7.37498 15.44 8.13764 15.264V13.512C8.13764 12.264 8.60564 11.2 9.54164 10.32C10.4776 9.44 11.6303 9 12.9996 9C14.369 9 15.5216 9.44 16.4576 10.32C17.3936 11.2 17.8703 12.264 17.8876 13.512V15.264C18.633 15.456 19.2223 15.76 19.6556 16.176C20.089 16.592 20.453 17.128 20.7476 17.784L20.8256 18H21.1376C22.4723 18 23.6163 17.56 24.5696 16.68C25.523 15.8 25.9996 14.744 25.9996 13.512V12C25.9996 10.768 25.523 9.712 24.5696 8.832C23.6163 7.952 22.4723 7.512 21.1376 7.512C21.0856 7.512 20.999 7.52 20.8776 7.536C21.051 6.96 21.1376 6.448 21.1376 6C21.1376 4.352 20.4963 2.944 19.2136 1.776C17.931 0.608 16.4056 0.016 14.6376 0C13.0776 0 11.7083 0.456 10.5296 1.368C9.35098 2.28 8.59698 3.416 8.26764 4.776C7.64364 4.6 7.05431 4.512 6.49964 4.512C4.71431 4.512 3.18031 5.096 1.89764 6.264C0.614978 7.432 -0.0176886 8.848 -0.000355238 10.512V12ZM8.13764 19.368C8.08564 19.832 8.24164 20.232 8.60564 20.568L11.8556 23.568C12.1676 23.856 12.549 24 12.9996 24C13.4503 24 13.8316 23.856 14.1436 23.568L17.3936 20.568C17.7576 20.232 17.9223 19.832 17.8876 19.368C17.853 19.208 17.8096 19.064 17.7576 18.936C17.6363 18.648 17.437 18.424 17.1596 18.264C16.8823 18.104 16.579 18.016 16.2496 18H14.6376V13.512C14.6376 13.096 14.473 12.744 14.1436 12.456C13.8143 12.168 13.433 12.016 12.9996 12C12.5663 11.984 12.185 12.136 11.8556 12.456C11.5263 12.776 11.3703 13.128 11.3876 13.512V18H9.74964C9.42031 18 9.11698 18.088 8.83964 18.264C8.56231 18.44 8.36298 18.664 8.24164 18.936C8.18964 19.08 8.15498 19.224 8.13764 19.368Z" fill="white"/>
</svg>
