<svg width="21" height="18" viewBox="0 0 21 18" fill="none" xmlns="http://www.w3.org/2000/svg">
<path d="M6.05796 6.49156H4.23709C3.10401 6.49156 2.53746 6.49156 2.10468 6.68246C1.72399 6.85037 1.41448 7.11829 1.22052 7.44786C1 7.82249 1 8.31297 1 9.29384V14.1978C1 15.1786 1 15.669 1.22052 16.0436C1.41448 16.3733 1.72399 16.6411 2.10468 16.8091C2.53746 17 3.104 17 4.23709 17H15.9584C17.0915 17 17.658 17 18.0908 16.8091C18.4715 16.6411 18.781 16.3733 18.975 16.0436C19.1955 15.669 19.1955 15.1786 19.1955 14.1978V9.1187M4.03478 11.7458H4.04489M8.08114 11.7457H8.09126M9.61765 9.90201L10.9477 9.67442C11.6654 9.55165 12.0242 9.49026 12.3589 9.37721C12.6559 9.27685 12.9381 9.14646 13.1998 8.98866C13.4946 8.81098 13.7531 8.58706 14.2705 8.13923L19.4785 3.63078C20.1738 3.02896 20.1738 2.0532 19.4785 1.45137C18.7834 0.849543 17.6562 0.849543 16.961 1.45138L11.6638 6.03692C11.1791 6.45652 10.9368 6.66633 10.741 6.90415C10.5672 7.11529 10.4211 7.34247 10.3052 7.5815C10.1747 7.85077 10.0963 8.13967 9.93944 8.71728L9.61765 9.90201Z" stroke="#5FB6E7" stroke-width="1.33" stroke-linecap="round" stroke-linejoin="round"/>
</svg>
